{
  "accessors": [
    {
      "name": "INDEX",
      "bufferView": 0,
      "componentType": 5125,
      "type": "SCALAR",
      "count": 58476
    },
    {
      "name": "POSITION",
      "bufferView": 1,
      "componentType": 5126,
      "type": "VEC3",
      "count": 14722,
      "min": [-0.5, -0.5, -0.5],
      "max": [0.5, 0.5, 0.5]
    },
    {
      "name": "NORMAL",
      "bufferView": 2,
      "componentType": 5126,
      "type": "VEC3",
      "count": 14722
    },
    {
      "name": "TEXCOORD_0",
      "bufferView": 3,
      "componentType": 5126,
      "type": "VEC2",
      "count": 14722
    },
    {
      "name": "COLOR_0",
      "bufferView": 4,
      "componentType": 5121,
      "type": "VEC4",
      "normalized": true,
      "count": 14722
    }
  ],
  "asset": {
    "generator": "Roblox Export",
    "version": "2.0",
    "min_version": "2.0"
  },
  "bufferViews": [
    {
      "name": "INDEX",
      "buffer": 0,
      "byteLength": 233904
    },
    {
      "name": "POSITION",
      "buffer": 1,
      "byteLength": 176664
    },
    {
      "name": "NORMAL",
      "buffer": 2,
      "byteLength": 176664
    },
    {
      "name": "TEXCOORD_0",
      "buffer": 3,
      "byteLength": 117776
    },
    {
      "name": "COLOR_0",
      "buffer": 4,
      "byteLength": 58888
    }
  ],
  "buffers": [
    {
      "name": "INDEX",
      "uri": "data:application/octet-stream;base64,",
      "byteLength": 233904
    },
    {
      "name": "POSITION",
      "uri": "data:application/octet-stream;base64,",
      "byteLength": 176664
    },
    {
      "name": "NORMAL",
      "uri": "data:application/octet-stream;base64,",
      "byteLength": 176664
    },
    {
      "name": "TEXCOORD_0",
      "uri": "data:application/octet-stream;base64,",
      "byteLength": 117776
    },
    {
      "name": "COLOR_0",
      "uri": "data:application/octet-stream;base64,",
      "byteLength": 58888
    }
  ],
  "images": [
    {
      "uri": "data:image/png;base64,"
    }
  ],
  "meshes": [
    {
      "name": "dump truck",
      "primitives": [
        {
          "indices": 0,
          "material": 0,
          "attributes": {
            "POSITION": 1,
            "NORMAL": 2,
            "TEXCOORD_0": 3,
            "COLOR_0": 4
          }
        }
      ]
    }
  ],
  "materials": [
    {
      "pbrMetallicRoughness": {
        "baseColorTexture": {
          "index": 0
        }
      }
    }
  ],
  "nodes": [
    {
      "children": [ ],
      "mesh": 0,
      "name": "dump truck",
      "translation": [-19.5110168, 2.5151825, 1.74116135],
      "rotation": [0, 0.0652059913, 0, 0.997871816],
      "scale": [4.00078344, 5.03036499, 9.24865818],
      "extras": {"RobloxInstanceType":"MeshPart","RobloxUniqueId":"4b808c15-3efd-ef6f-090b-06550000791f","RobloxMeshId":"rbxassetid://81960167220423","RobloxDiffuseTextureId":"rbxassetid://102339963452486","Material":"plastic","Color":"(163, 162, 165)","Transparency":0,"Anchored":true}
    }
  ],
  "scenes": [
    {
      "nodes": [ 0 ]
    }
  ],
  "textures": [
    {
      "source": 0
    }
  ]
}

