<svg width="18" height="22" viewBox="0 0 18 22" fill="none" xmlns="http://www.w3.org/2000/svg">
<path d="M9.82812 0.0107422C14.0551 0.224985 17.417 3.71978 17.417 8V14L17.4062 14.4121C17.1987 18.5025 13.9186 21.7819 9.82812 21.9893L9.41699 22H8C3.71997 22 0.225265 18.6388 0.0107422 14.4121L0 14V8C1.24824e-07 3.71994 3.36114 0.22523 7.58789 0.0107422L8 0H9.41699L9.82812 0.0107422ZM8 2C4.68629 2 2 4.68629 2 8V14C2.00003 17.3137 4.68631 20 8 20H9.41699C12.7305 19.9997 15.417 17.3135 15.417 14V8C15.417 4.68645 12.7305 2.00026 9.41699 2H8ZM8.70801 5.17676C9.72053 5.17676 10.542 5.99724 10.542 7.00977V10.6768C10.5418 11.6891 9.72039 12.5098 8.70801 12.5098C7.69571 12.5097 6.87523 11.689 6.875 10.6768V7.00977C6.875 5.99731 7.69557 5.17686 8.70801 5.17676Z" fill="#DDDDDD"/>
</svg>
