<svg width="18" height="22" viewBox="0 0 18 22" fill="none" xmlns="http://www.w3.org/2000/svg">
<path d="M9.82812 0.0107422C14.0552 0.224907 17.417 3.71973 17.417 8V14L17.4062 14.4121C17.1987 18.5026 13.9187 21.782 9.82812 21.9893L9.41699 22H8C3.71995 22 0.225231 18.6389 0.0107422 14.4121L0 14V8C1.24824e-07 3.71994 3.36114 0.22523 7.58789 0.0107422L8 0H9.41699L9.82812 0.0107422ZM8.75684 8.64258C8.75674 10.2994 7.41363 11.6426 5.75684 11.6426H2V14C2 17.3137 4.68629 20 8 20H9.41699C12.7306 19.9998 15.417 17.3136 15.417 14V8C15.417 4.6864 12.7306 2.00018 9.41699 2H8.75684V8.64258Z" fill="#DDDDDD"/>
</svg>
