<svg width="64" height="24" viewBox="0 0 64 24" fill="none" xmlns="http://www.w3.org/2000/svg">
<path d="M20.2061 0.00488281C22.319 0.112404 23.9998 1.86033 24 4V20L23.9951 20.2061C23.8913 22.2509 22.2509 23.8911 20.2061 23.9951L20 24H4L3.79395 23.9951C1.74887 23.8914 0.108749 22.2511 0.00488281 20.2061L0 20V4C0.000198001 1.79103 1.79098 8.58961e-08 4 0H20L20.2061 0.00488281ZM55.7188 0.930664C59.9457 1.14493 63.3076 4.63971 63.3076 8.91992V14.9199L63.2969 15.332C63.0892 19.4223 59.8091 22.7019 55.7188 22.9092L55.3076 22.9199H53.8906C49.6107 22.9199 46.116 19.5587 45.9014 15.332L45.8906 14.9199V8.91992C45.8906 4.63987 49.2518 1.14515 53.4785 0.930664L53.8906 0.919922H55.3076L55.7188 0.930664ZM4 2C2.89555 2 2.0002 2.8956 2 4V20C2.0001 21.1045 2.89549 22 4 22H20C21.1042 21.9997 21.9999 21.1043 22 20V4C21.9998 2.8958 21.1042 2.00032 20 2H4ZM54.6475 9.5625C54.6472 11.2191 53.3041 12.5624 51.6475 12.5625H47.8906V14.9199C47.8908 18.2335 50.577 20.9199 53.8906 20.9199H55.3076C58.621 20.9196 61.3075 18.2333 61.3076 14.9199V8.91992C61.3076 5.60639 58.6211 2.9202 55.3076 2.91992H54.6475V9.5625ZM11.6748 6.2207C11.8528 6.03868 12.1463 6.03862 12.3242 6.2207L18.1455 12.1855C18.4253 12.4729 18.2215 12.9558 17.8203 12.9561H14.5615V17.6572C14.5615 17.9077 14.3579 18.1112 14.1074 18.1113H9.8916C9.6411 18.1113 9.43848 17.9077 9.43848 17.6572V12.9561H6.17969C5.77825 12.9561 5.57435 12.4729 5.85449 12.1855L11.6748 6.2207ZM35.5459 7.76562C36.0979 7.76589 36.5448 8.21359 36.5449 8.76562V11.6582H39.5566C40.1088 11.6584 40.5566 12.106 40.5566 12.6582C40.5564 13.2102 40.1087 13.658 39.5566 13.6582H36.5449V16.7529C36.5449 17.3052 36.0972 17.7529 35.5449 17.7529C34.9929 17.7527 34.5449 17.3051 34.5449 16.7529V13.6582H31.5693C31.0172 13.6582 30.5695 13.2103 30.5693 12.6582C30.5693 12.1059 31.0171 11.6582 31.5693 11.6582H34.5449V8.76562C34.545 8.21342 34.9937 7.76562 35.5459 7.76562Z" fill="#D9D9D9"/>
</svg>
