{
  "accessors": [
    {
      "name": "INDEX",
      "bufferView": 0,
      "componentType": 5125,
      "type": "SCALAR",
      "count": 59964
    },
    {
      "name": "POSITION",
      "bufferView": 1,
      "componentType": 5126,
      "type": "VEC3",
      "count": 13611,
      "min": [-0.5, -0.49999997, -0.49999997],
      "max": [0.5, 0.49999997, 0.49999997]
    },
    {
      "name": "NORMAL",
      "bufferView": 2,
      "componentType": 5126,
      "type": "VEC3",
      "count": 13611
    },
    {
      "name": "TEXCOORD_0",
      "bufferView": 3,
      "componentType": 5126,
      "type": "VEC2",
      "count": 13611
    },
    {
      "name": "COLOR_0",
      "bufferView": 4,
      "componentType": 5121,
      "type": "VEC4",
      "normalized": true,
      "count": 13611
    }
  ],
  "asset": {
    "generator": "Roblox Export",
    "version": "2.0",
    "min_version": "2.0"
  },
  "bufferViews": [
    {
      "name": "INDEX",
      "buffer": 0,
      "byteLength": 239856
    },
    {
      "name": "POSITION",
      "buffer": 1,
      "byteLength": 163332
    },
    {
      "name": "NORMAL",
      "buffer": 2,
      "byteLength": 163332
    },
    {
      "name": "TEXCOORD_0",
      "buffer": 3,
      "byteLength": 108888
    },
    {
      "name": "COLOR_0",
      "buffer": 4,
      "byteLength": 54444
    }
  ],
  "buffers": [
    {
      "name": "INDEX",
      "uri": "data:application/octet-stream;base64,",
      "byteLength": 239856
    },
    {
      "name": "POSITION",
      "uri": "data:application/octet-stream;base64,",
      "byteLength": 163332
    },
    {
      "name": "NORMAL",
      "uri": "data:application/octet-stream;base64,",
      "byteLength": 163332
    },
    {
      "name": "TEXCOORD_0",
      "uri": "data:application/octet-stream;base64,",
      "byteLength": 108888
    },
    {
      "name": "COLOR_0",
      "uri": "data:application/octet-stream;base64,",
      "byteLength": 54444
    }
  ],
  "images": [
    {
      "uri": "data:image/png;base64,"
    }
  ],
  "meshes": [
    {
      "name": "squirrel with nut",
      "primitives": [
        {
          "indices": 0,
          "material": 0,
          "attributes": {
            "POSITION": 1,
            "NORMAL": 2,
            "TEXCOORD_0": 3,
            "COLOR_0": 4
          }
        }
      ]
    }
  ],
  "materials": [
    {
      "pbrMetallicRoughness": {
        "baseColorTexture": {
          "index": 0
        }
      }
    }
  ],
  "nodes": [
    {
      "children": [ ],
      "mesh": 0,
      "name": "squirrel with nut",
      "translation": [-28.5761242, 3.2981596, -23.3506489],
      "scale": [4, 6.5963192, 6.80734396],
      "extras": {"RobloxInstanceType":"MeshPart","RobloxUniqueId":"39048897-338e-70dd-090c-49720000188b","RobloxMeshId":"rbxassetid://104305635904524","RobloxDiffuseTextureId":"rbxassetid://109552796895362","Material":"plastic","Color":"(163, 162, 165)","Transparency":0,"Anchored":true}
    }
  ],
  "scenes": [
    {
      "nodes": [ 0 ]
    }
  ],
  "textures": [
    {
      "source": 0
    }
  ]
}

