{
  "accessors": [
    {
      "name": "INDEX",
      "bufferView": 0,
      "componentType": 5125,
      "type": "SCALAR",
      "count": 58434
    },
    {
      "name": "POSITION",
      "bufferView": 1,
      "componentType": 5126,
      "type": "VEC3",
      "count": 14202,
      "min": [-0.5, -0.49999997, -0.5],
      "max": [0.5, 0.49999997, 0.5]
    },
    {
      "name": "NORMAL",
      "bufferView": 2,
      "componentType": 5126,
      "type": "VEC3",
      "count": 14202
    },
    {
      "name": "TEXCOORD_0",
      "bufferView": 3,
      "componentType": 5126,
      "type": "VEC2",
      "count": 14202
    },
    {
      "name": "COLOR_0",
      "bufferView": 4,
      "componentType": 5121,
      "type": "VEC4",
      "normalized": true,
      "count": 14202
    }
  ],
  "asset": {
    "generator": "Roblox Export",
    "version": "2.0",
    "min_version": "2.0"
  },
  "bufferViews": [
    {
      "name": "INDEX",
      "buffer": 0,
      "byteLength": 233736
    },
    {
      "name": "POSITION",
      "buffer": 1,
      "byteLength": 170424
    },
    {
      "name": "NORMAL",
      "buffer": 2,
      "byteLength": 170424
    },
    {
      "name": "TEXCOORD_0",
      "buffer": 3,
      "byteLength": 113616
    },
    {
      "name": "COLOR_0",
      "buffer": 4,
      "byteLength": 56808
    }
  ],
  "buffers": [
    {
      "name": "INDEX",
      "uri": "data:application/octet-stream;base64,",
      "byteLength": 233736
    },
    {
      "name": "POSITION",
      "uri": "data:application/octet-stream;base64,",
      "byteLength": 170424
    },
    {
      "name": "NORMAL",
      "uri": "data:application/octet-stream;base64,",
      "byteLength": 170424
    },
    {
      "name": "TEXCOORD_0",
      "uri": "data:application/octet-stream;base64,",
      "byteLength": 113616
    },
    {
      "name": "COLOR_0",
      "uri": "data:application/octet-stream;base64,",
      "byteLength": 56808
    }
  ],
  "images": [
    {
      "uri": "data:image/png;base64,"
    }
  ],
  "meshes": [
    {
      "name": "bank building",
      "primitives": [
        {
          "indices": 0,
          "material": 0,
          "attributes": {
            "POSITION": 1,
            "NORMAL": 2,
            "TEXCOORD_0": 3,
            "COLOR_0": 4
          }
        }
      ]
    }
  ],
  "materials": [
    {
      "pbrMetallicRoughness": {
        "baseColorTexture": {
          "index": 0
        }
      }
    }
  ],
  "nodes": [
    {
      "children": [ ],
      "mesh": 0,
      "name": "bank building",
      "translation": [-25.4495277, 1.9999516, -32.4536743],
      "rotation": [0, -0.707106769, 0, 0.707106769],
      "scale": [4.00307846, 4.00009775, 4.00329447],
      "extras": {"RobloxInstanceType":"MeshPart","RobloxUniqueId":"39048897-338e-70dd-090c-4972000017b2","RobloxMeshId":"rbxassetid://94693908197860","RobloxDiffuseTextureId":"rbxassetid://79901102984961","Material":"plastic","Color":"(163, 162, 165)","Transparency":0,"Anchored":true}
    }
  ],
  "scenes": [
    {
      "nodes": [ 0 ]
    }
  ],
  "textures": [
    {
      "source": 0
    }
  ]
}

