{
  "accessors": [
    {
      "name": "INDEX",
      "bufferView": 0,
      "componentType": 5125,
      "type": "SCALAR",
      "count": 59514
    },
    {
      "name": "POSITION",
      "bufferView": 1,
      "componentType": 5126,
      "type": "VEC3",
      "count": 14143,
      "min": [-0.5, -0.5, -0.5],
      "max": [0.5, 0.5, 0.5]
    },
    {
      "name": "NORMAL",
      "bufferView": 2,
      "componentType": 5126,
      "type": "VEC3",
      "count": 14143
    },
    {
      "name": "TEXCOORD_0",
      "bufferView": 3,
      "componentType": 5126,
      "type": "VEC2",
      "count": 14143
    },
    {
      "name": "COLOR_0",
      "bufferView": 4,
      "componentType": 5121,
      "type": "VEC4",
      "normalized": true,
      "count": 14143
    }
  ],
  "asset": {
    "generator": "Roblox Export",
    "version": "2.0",
    "min_version": "2.0"
  },
  "bufferViews": [
    {
      "name": "INDEX",
      "buffer": 0,
      "byteLength": 238056
    },
    {
      "name": "POSITION",
      "buffer": 1,
      "byteLength": 169716
    },
    {
      "name": "NORMAL",
      "buffer": 2,
      "byteLength": 169716
    },
    {
      "name": "TEXCOORD_0",
      "buffer": 3,
      "byteLength": 113144
    },
    {
      "name": "COLOR_0",
      "buffer": 4,
      "byteLength": 56572
    }
  ],
  "buffers": [
    {
      "name": "INDEX",
      "uri": "data:application/octet-stream;base64,",
      "byteLength": 238056
    },
    {
      "name": "POSITION",
      "uri": "data:application/octet-stream;base64,",
      "byteLength": 169716
    },
    {
      "name": "NORMAL",
      "uri": "data:application/octet-stream;base64,",
      "byteLength": 169716
    },
    {
      "name": "TEXCOORD_0",
      "uri": "data:application/octet-stream;base64,",
      "byteLength": 113144
    },
    {
      "name": "COLOR_0",
      "uri": "data:application/octet-stream;base64,",
      "byteLength": 56572
    }
  ],
  "images": [
    {
      "uri": "data:image/png;base64,"
    }
  ],
  "meshes": [
    {
      "name": "an orange jackolantern",
      "primitives": [
        {
          "indices": 0,
          "material": 0,
          "attributes": {
            "POSITION": 1,
            "NORMAL": 2,
            "TEXCOORD_0": 3,
            "COLOR_0": 4
          }
        }
      ]
    }
  ],
  "materials": [
    {
      "pbrMetallicRoughness": {
        "baseColorTexture": {
          "index": 0
        }
      }
    }
  ],
  "nodes": [
    {
      "children": [ ],
      "mesh": 0,
      "name": "an orange jackolantern",
      "translation": [14.4152412, 2.09198856, -2.95639038e-05],
      "rotation": [0, 0.382683426, 0, 0.923879564],
      "scale": [4, 4.18418169, 4.18363714],
      "extras": {"RobloxInstanceType":"MeshPart","RobloxUniqueId":"39048897-338e-70dd-090c-497200003b11","RobloxMeshId":"rbxassetid://107194846501572","RobloxDiffuseTextureId":"rbxassetid://121867048990314","Material":"plastic","Color":"(163, 162, 165)","Transparency":0,"Anchored":true}
    }
  ],
  "scenes": [
    {
      "nodes": [ 0 ]
    }
  ],
  "textures": [
    {
      "source": 0
    }
  ]
}

