{
  "accessors": [
    {
      "name": "INDEX",
      "bufferView": 0,
      "componentType": 5125,
      "type": "SCALAR",
      "count": 60000
    },
    {
      "name": "POSITION",
      "bufferView": 1,
      "componentType": 5126,
      "type": "VEC3",
      "count": 14352,
      "min": [-0.499947667, -0.499873012, -0.500087798],
      "max": [0.500052273, 0.500126958, 0.499912232]
    },
    {
      "name": "NORMAL",
      "bufferView": 2,
      "componentType": 5126,
      "type": "VEC3",
      "count": 14352
    },
    {
      "name": "TEXCOORD_0",
      "bufferView": 3,
      "componentType": 5126,
      "type": "VEC2",
      "count": 14352
    },
    {
      "name": "COLOR_0",
      "bufferView": 4,
      "componentType": 5121,
      "type": "VEC4",
      "normalized": true,
      "count": 14352
    }
  ],
  "asset": {
    "generator": "Roblox Export",
    "version": "2.0",
    "min_version": "2.0"
  },
  "bufferViews": [
    {
      "name": "INDEX",
      "buffer": 0,
      "byteLength": 240000
    },
    {
      "name": "POSITION",
      "buffer": 1,
      "byteLength": 172224
    },
    {
      "name": "NORMAL",
      "buffer": 2,
      "byteLength": 172224
    },
    {
      "name": "TEXCOORD_0",
      "buffer": 3,
      "byteLength": 114816
    },
    {
      "name": "COLOR_0",
      "buffer": 4,
      "byteLength": 57408
    }
  ],
  "buffers": [
    {
      "name": "INDEX",
      "uri": "data:application/octet-stream;base64,",
      "byteLength": 240000
    },
    {
      "name": "POSITION",
      "uri": "data:application/octet-stream;base64,",
      "byteLength": 172224
    },
    {
      "name": "NORMAL",
      "uri": "data:application/octet-stream;base64,",
      "byteLength": 172224
    },
    {
      "name": "TEXCOORD_0",
      "uri": "data:application/octet-stream;base64,",
      "byteLength": 114816
    },
    {
      "name": "COLOR_0",
      "uri": "data:application/octet-stream;base64,",
      "byteLength": 57408
    }
  ],
  "images": [
    {
      "uri": "data:image/png;base64,"
    }
  ],
  "meshes": [
    {
      "name": "Winged_Victory",
      "primitives": [
        {
          "indices": 0,
          "material": 0,
          "attributes": {
            "POSITION": 1,
            "NORMAL": 2,
            "TEXCOORD_0": 3,
            "COLOR_0": 4
          }
        }
      ]
    }
  ],
  "materials": [
    {
      "pbrMetallicRoughness": {
        "baseColorTexture": {
          "index": 0
        }
      }
    }
  ],
  "nodes": [
    {
      "children": [ ],
      "mesh": 0,
      "name": "Winged_Victory",
      "translation": [4.10894871, 10.6452312, -12.2582035],
      "scale": [10.5412693, 21.2904625, 9.45794678],
      "extras": {"RobloxInstanceType":"MeshPart","RobloxUniqueId":"39048897-338e-70dd-090c-4972000021bd","RobloxMeshId":"rbxassetid://121894697743803","RobloxDiffuseTextureId":"rbxassetid://87982922400880","Material":"plastic","Color":"(163, 162, 165)","Transparency":0,"Anchored":false}
    }
  ],
  "scenes": [
    {
      "nodes": [ 0 ]
    }
  ],
  "textures": [
    {
      "source": 0
    }
  ]
}

